<?xml version="1.0" encoding="utf-8"?>
<!-- Generator: Adobe Illustrator 22.1.0, SVG Export Plug-In . SVG Version: 6.00 Build 0)  -->
<svg version="1.1" xmlns="http://www.w3.org/2000/svg" xmlns:xlink="http://www.w3.org/1999/xlink" x="0px" y="0px"
	 viewBox="0 0 60 60" style="enable-background:new 0 0 60 60;" xml:space="preserve">
<g id="linkedarticle_x5F_inactive">
</g>
<g id="linkedarticle">
	<g id="list-alt_1_">
		<path style="fill:#333333;" d="M45.4,47.6h-22v-4.4h22V47.6z M45.4,16.8h-22v4.4h22V16.8z M45.4,25.6h-22V30h22V25.6z M19,16.8
			h-4.4v4.4H19V16.8z M45.4,34.4h-22v4.4h22V34.4z M19,43.2h-4.4v4.4H19V43.2z M19,25.6h-4.4V30H19V25.6z M19,34.4h-4.4v4.4H19V34.4
			z M54.3,5.8c0-1.2-1-2.2-2.2-2.2H8c-1.2,0-2.2,1-2.2,2.2v48.5c0,1.2,1,2.2,2.2,2.2H52c1.2,0,2.2-1,2.2-2.2V5.8z M49.8,52H10.2
			V12.4h39.7V52z"/>
	</g>
</g>
<g id="delete_x5F_dark">
</g>
<g id="delete_x5F_translation">
</g>
<g id="save">
</g>
<g id="reset">
</g>
<g id="down">
</g>
<g id="right">
</g>
<g id="arrowright">
</g>
<g id="arrowleft">
</g>
<g id="delete">
</g>
<g id="search">
</g>
</svg>
